<mxfile host="Electron" agent="Mozilla/5.0 (X11; Linux x86_64) AppleWebKit/537.36 (KHTML, like Gecko) draw.io/24.7.5 Chrome/126.0.6478.183 Electron/31.3.0 Safari/537.36" version="24.7.5">
  <diagram name="Page-1" id="wn2WgBWKoTS__nd-mi05">
    <mxGraphModel dx="1780" dy="1250" grid="1" gridSize="5" guides="1" tooltips="1" connect="1" arrows="1" fold="1" page="0" pageScale="1" pageWidth="827" pageHeight="1169" math="0" shadow="0">
      <root>
        <mxCell id="0" />
        <mxCell id="1" parent="0" />
        <mxCell id="I2YBzd-Ep0RmMIOQDvFT-160" value="#" style="rounded=0;whiteSpace=wrap;html=1;fillColor=none;strokeColor=none;rotation=-270;" parent="1" vertex="1">
          <mxGeometry x="-260" y="-100.00000000000003" width="540" height="200" as="geometry" />
        </mxCell>
        <mxCell id="Ekk-Qu9Clgl-ypge0_Tx-82" value="" style="shape=trapezoid;perimeter=trapezoidPerimeter;whiteSpace=wrap;html=1;fixedSize=1;rotation=-90;strokeColor=none;size=9.289999999999964;fillColor=#25272E;container=0;" parent="1" vertex="1">
          <mxGeometry x="-68" y="188.99999999999997" width="35.71" height="39.82" as="geometry" />
        </mxCell>
        <mxCell id="Ekk-Qu9Clgl-ypge0_Tx-81" value="" style="shape=trapezoid;perimeter=trapezoidPerimeter;whiteSpace=wrap;html=1;fixedSize=1;rotation=-270;strokeColor=none;size=9.289999999999964;fillColor=#25272E;container=0;" parent="1" vertex="1">
          <mxGeometry x="52" y="188.99999999999997" width="35.71" height="39.82" as="geometry" />
        </mxCell>
        <mxCell id="I2YBzd-Ep0RmMIOQDvFT-12" value="" style="shape=trapezoid;perimeter=trapezoidPerimeter;whiteSpace=wrap;html=1;fixedSize=1;rotation=-270;strokeColor=none;size=9.289999999999964;fillColor=#0B0B0D;container=0;" parent="1" vertex="1">
          <mxGeometry x="30" y="139.99999999999997" width="59.29" height="20" as="geometry" />
        </mxCell>
        <mxCell id="Ekk-Qu9Clgl-ypge0_Tx-57" value="" style="shape=trapezoid;perimeter=trapezoidPerimeter;whiteSpace=wrap;html=1;fixedSize=1;rotation=-270;strokeColor=none;size=9.289999999999964;fillColor=#575757;container=0;" parent="1" vertex="1">
          <mxGeometry x="30" y="139.99999999999997" width="59.29" height="20" as="geometry" />
        </mxCell>
        <mxCell id="I2YBzd-Ep0RmMIOQDvFT-10" value="" style="rounded=0;whiteSpace=wrap;html=1;strokeColor=none;fillColor=#0B0B0D;container=0;rotation=-270;" parent="1" vertex="1">
          <mxGeometry x="-70" y="109.99999999999997" width="160" height="80" as="geometry" />
        </mxCell>
        <mxCell id="Ekk-Qu9Clgl-ypge0_Tx-45" value="" style="rounded=0;whiteSpace=wrap;html=1;strokeColor=none;fillColor=#575757;container=0;rotation=-270;" parent="1" vertex="1">
          <mxGeometry x="-19" y="108.99999999999997" width="59.29" height="82.25" as="geometry" />
        </mxCell>
        <mxCell id="I2YBzd-Ep0RmMIOQDvFT-6" value="" style="rounded=0;whiteSpace=wrap;html=1;strokeColor=none;fillColor=#0B0B0D;container=0;rotation=-270;" parent="1" vertex="1">
          <mxGeometry x="-30" y="-150.00000000000003" width="80" height="80" as="geometry" />
        </mxCell>
        <mxCell id="I2YBzd-Ep0RmMIOQDvFT-102" value="" style="endArrow=none;html=1;rounded=0;strokeWidth=4;strokeColor=#919191;exitX=1;exitY=0.5;exitDx=0;exitDy=0;" parent="1" source="I2YBzd-Ep0RmMIOQDvFT-99" edge="1">
          <mxGeometry width="50" height="50" relative="1" as="geometry">
            <mxPoint x="-10" y="-124.00000000000003" as="sourcePoint" />
            <mxPoint x="-20" y="-124.00000000000003" as="targetPoint" />
          </mxGeometry>
        </mxCell>
        <mxCell id="I2YBzd-Ep0RmMIOQDvFT-98" value="" style="endArrow=none;html=1;rounded=0;strokeWidth=4;strokeColor=#919191;exitX=1;exitY=0.5;exitDx=0;exitDy=0;" parent="1" source="I2YBzd-Ep0RmMIOQDvFT-103" edge="1">
          <mxGeometry width="50" height="50" relative="1" as="geometry">
            <mxPoint x="-10" y="-139.00000000000003" as="sourcePoint" />
            <mxPoint x="-20" y="-139.00000000000003" as="targetPoint" />
          </mxGeometry>
        </mxCell>
        <mxCell id="I2YBzd-Ep0RmMIOQDvFT-100" value="" style="rounded=0;whiteSpace=wrap;html=1;strokeWidth=4;strokeColor=#405361;fillColor=none;container=0;rotation=-180;" parent="1" vertex="1">
          <mxGeometry x="-29" y="-144.00000000000003" width="9" height="25" as="geometry" />
        </mxCell>
        <mxCell id="Ekk-Qu9Clgl-ypge0_Tx-35" value="" style="group;rotation=-450;" parent="1" vertex="1" connectable="0">
          <mxGeometry x="80" y="-7.000000000000028" width="18" height="13" as="geometry" />
        </mxCell>
        <mxCell id="Ekk-Qu9Clgl-ypge0_Tx-31" value="" style="rounded=0;whiteSpace=wrap;html=1;strokeColor=none;fillColor=#808080;rotation=-450;" parent="Ekk-Qu9Clgl-ypge0_Tx-35" vertex="1">
          <mxGeometry x="11" y="4" width="5" height="5" as="geometry" />
        </mxCell>
        <mxCell id="Ekk-Qu9Clgl-ypge0_Tx-32" value="" style="rounded=0;whiteSpace=wrap;html=1;strokeColor=none;fillColor=#808080;rotation=-450;" parent="Ekk-Qu9Clgl-ypge0_Tx-35" vertex="1">
          <mxGeometry x="6" y="-3" width="4" height="5" as="geometry" />
        </mxCell>
        <mxCell id="Ekk-Qu9Clgl-ypge0_Tx-33" value="" style="rounded=0;whiteSpace=wrap;html=1;strokeColor=none;fillColor=#808080;rotation=-450;" parent="Ekk-Qu9Clgl-ypge0_Tx-35" vertex="1">
          <mxGeometry x="6" y="11" width="4" height="5" as="geometry" />
        </mxCell>
        <mxCell id="Ekk-Qu9Clgl-ypge0_Tx-34" value="" style="shape=trapezoid;perimeter=trapezoidPerimeter;whiteSpace=wrap;html=1;fixedSize=1;rotation=-630;strokeColor=none;size=3;fillColor=#474747;container=0;" parent="Ekk-Qu9Clgl-ypge0_Tx-35" vertex="1">
          <mxGeometry y="1" width="16.37" height="10.5" as="geometry" />
        </mxCell>
        <mxCell id="Ekk-Qu9Clgl-ypge0_Tx-30" value="" style="rounded=0;whiteSpace=wrap;html=1;strokeColor=none;fillColor=#808080;rotation=-270;" parent="1" vertex="1">
          <mxGeometry x="-76" y="-3.0000000000000284" width="5" height="5" as="geometry" />
        </mxCell>
        <mxCell id="Ekk-Qu9Clgl-ypge0_Tx-26" value="" style="rounded=0;whiteSpace=wrap;html=1;strokeColor=none;fillColor=#808080;rotation=-270;" parent="1" vertex="1">
          <mxGeometry x="-71" y="3.9999999999999716" width="4" height="5" as="geometry" />
        </mxCell>
        <mxCell id="Ekk-Qu9Clgl-ypge0_Tx-29" value="" style="rounded=0;whiteSpace=wrap;html=1;strokeColor=none;fillColor=#808080;rotation=-270;" parent="1" vertex="1">
          <mxGeometry x="-71" y="-10.000000000000028" width="4" height="5" as="geometry" />
        </mxCell>
        <mxCell id="Ekk-Qu9Clgl-ypge0_Tx-27" value="" style="shape=trapezoid;perimeter=trapezoidPerimeter;whiteSpace=wrap;html=1;fixedSize=1;rotation=-450;strokeColor=none;size=3;fillColor=#474747;container=0;" parent="1" vertex="1">
          <mxGeometry x="-77" y="-5.000000000000028" width="16.37" height="10.5" as="geometry" />
        </mxCell>
        <mxCell id="I2YBzd-Ep0RmMIOQDvFT-8" value="" style="shape=trapezoid;perimeter=trapezoidPerimeter;whiteSpace=wrap;html=1;fixedSize=1;rotation=-360;strokeColor=none;size=28.449999999999818;fillColor=#0B0B0D;container=0;" parent="1" vertex="1">
          <mxGeometry x="-61" y="-69.00000000000003" width="139.29" height="30.5" as="geometry" />
        </mxCell>
        <mxCell id="I2YBzd-Ep0RmMIOQDvFT-7" value="" style="rounded=0;whiteSpace=wrap;html=1;strokeColor=none;fillColor=#0B0B0D;container=0;rotation=-270;" parent="1" vertex="1">
          <mxGeometry x="-31" y="-70.00000000000003" width="80" height="139" as="geometry" />
        </mxCell>
        <mxCell id="I2YBzd-Ep0RmMIOQDvFT-9" value="" style="shape=trapezoid;perimeter=trapezoidPerimeter;whiteSpace=wrap;html=1;fixedSize=1;rotation=-180;strokeColor=none;size=28.449999999999818;fillColor=#0B0B0D;container=0;" parent="1" vertex="1">
          <mxGeometry x="-61" y="38.99999999999997" width="139.29" height="30.5" as="geometry" />
        </mxCell>
        <mxCell id="I2YBzd-Ep0RmMIOQDvFT-157" value="" style="endArrow=none;html=1;rounded=0;exitX=0.5;exitY=0;exitDx=0;exitDy=0;exitPerimeter=0;strokeWidth=4;strokeColor=#1C0707;" parent="1" source="I2YBzd-Ep0RmMIOQDvFT-18" edge="1">
          <mxGeometry width="50" height="50" relative="1" as="geometry">
            <mxPoint x="18" y="-16.00000000000003" as="sourcePoint" />
            <mxPoint x="80" y="-2.842170943040401e-14" as="targetPoint" />
          </mxGeometry>
        </mxCell>
        <mxCell id="I2YBzd-Ep0RmMIOQDvFT-158" value="" style="endArrow=none;html=1;rounded=0;exitX=0;exitY=0;exitDx=7.32;exitDy=7.32;exitPerimeter=0;strokeWidth=4;strokeColor=#1C0707;" parent="1" edge="1">
          <mxGeometry width="50" height="50" relative="1" as="geometry">
            <mxPoint x="27" y="-18.00000000000003" as="sourcePoint" />
            <mxPoint x="65" y="-55.00000000000003" as="targetPoint" />
          </mxGeometry>
        </mxCell>
        <mxCell id="I2YBzd-Ep0RmMIOQDvFT-159" value="" style="endArrow=none;html=1;rounded=0;exitX=0;exitY=0;exitDx=42.68;exitDy=7.32;exitPerimeter=0;strokeWidth=4;strokeColor=#1C0707;" parent="1" source="I2YBzd-Ep0RmMIOQDvFT-18" edge="1">
          <mxGeometry width="50" height="50" relative="1" as="geometry">
            <mxPoint x="25" y="15.999999999999972" as="sourcePoint" />
            <mxPoint x="65" y="54.99999999999997" as="targetPoint" />
          </mxGeometry>
        </mxCell>
        <mxCell id="I2YBzd-Ep0RmMIOQDvFT-132" value="" style="rounded=0;whiteSpace=wrap;html=1;fillColor=none;strokeWidth=4;strokeColor=#5E564B;rotation=-270;" parent="1" vertex="1">
          <mxGeometry x="32" y="86.99999999999997" width="20" height="16" as="geometry" />
        </mxCell>
        <mxCell id="I2YBzd-Ep0RmMIOQDvFT-130" value="" style="rounded=0;whiteSpace=wrap;html=1;fillColor=none;strokeWidth=4;strokeColor=#5E564B;rotation=-270;" parent="1" vertex="1">
          <mxGeometry x="-27" y="66.99999999999997" width="31" height="37" as="geometry" />
        </mxCell>
        <mxCell id="I2YBzd-Ep0RmMIOQDvFT-84" value="" style="endArrow=none;html=1;rounded=0;entryX=0;entryY=0.5;entryDx=0;entryDy=0;strokeWidth=4;strokeColor=#5C7375;exitX=1;exitY=0.5;exitDx=0;exitDy=0;" parent="1" source="I2YBzd-Ep0RmMIOQDvFT-82" target="I2YBzd-Ep0RmMIOQDvFT-83" edge="1">
          <mxGeometry width="50" height="50" relative="1" as="geometry">
            <mxPoint x="66" y="18.99999999999997" as="sourcePoint" />
            <mxPoint x="26" y="18.99999999999997" as="targetPoint" />
          </mxGeometry>
        </mxCell>
        <mxCell id="I2YBzd-Ep0RmMIOQDvFT-15" value="" style="shape=trapezoid;perimeter=trapezoidPerimeter;whiteSpace=wrap;html=1;fixedSize=1;rotation=-180;strokeColor=none;size=18.429999999999836;fillColor=#0B0B0D;container=0;" parent="1" vertex="1">
          <mxGeometry x="-34" y="229.99999999999997" width="86.08" height="20.4" as="geometry" />
        </mxCell>
        <mxCell id="I2YBzd-Ep0RmMIOQDvFT-71" value="" style="rounded=0;whiteSpace=wrap;html=1;strokeColor=none;fillColor=#FFB72C;rotation=-270;" parent="1" vertex="1">
          <mxGeometry x="-1" y="238.99999999999997" width="5" height="4.86" as="geometry" />
        </mxCell>
        <mxCell id="I2YBzd-Ep0RmMIOQDvFT-72" value="" style="rounded=0;whiteSpace=wrap;html=1;strokeColor=none;fillColor=#FF6726;rotation=-270;" parent="1" vertex="1">
          <mxGeometry x="-1" y="231.99999999999997" width="5" height="4.86" as="geometry" />
        </mxCell>
        <mxCell id="I2YBzd-Ep0RmMIOQDvFT-73" value="" style="rounded=0;whiteSpace=wrap;html=1;strokeColor=none;fillColor=#FFB72C;rotation=-270;" parent="1" vertex="1">
          <mxGeometry x="-1" y="224.99999999999997" width="5" height="4.86" as="geometry" />
        </mxCell>
        <mxCell id="I2YBzd-Ep0RmMIOQDvFT-74" value="" style="rounded=0;whiteSpace=wrap;html=1;strokeColor=none;fillColor=#3D4554;rotation=-270;" parent="1" vertex="1">
          <mxGeometry x="-3" y="212.99999999999997" width="8" height="4.86" as="geometry" />
        </mxCell>
        <mxCell id="I2YBzd-Ep0RmMIOQDvFT-75" value="" style="rounded=0;whiteSpace=wrap;html=1;strokeColor=none;fillColor=#FFB72C;rotation=-270;" parent="1" vertex="1">
          <mxGeometry x="-1" y="199.99999999999997" width="5" height="4.86" as="geometry" />
        </mxCell>
        <mxCell id="I2YBzd-Ep0RmMIOQDvFT-76" value="" style="rounded=0;whiteSpace=wrap;html=1;strokeColor=none;fillColor=#FF6726;rotation=-270;" parent="1" vertex="1">
          <mxGeometry x="-1" y="192.99999999999997" width="5" height="4.86" as="geometry" />
        </mxCell>
        <mxCell id="I2YBzd-Ep0RmMIOQDvFT-77" value="" style="rounded=0;whiteSpace=wrap;html=1;strokeColor=none;fillColor=#FFB72C;rotation=-270;" parent="1" vertex="1">
          <mxGeometry x="-1" y="185.99999999999997" width="5" height="4.86" as="geometry" />
        </mxCell>
        <mxCell id="I2YBzd-Ep0RmMIOQDvFT-68" value="" style="rounded=0;whiteSpace=wrap;html=1;strokeColor=none;fillColor=#FFB72C;rotation=-270;" parent="1" vertex="1">
          <mxGeometry x="15" y="238.99999999999997" width="5" height="4.86" as="geometry" />
        </mxCell>
        <mxCell id="I2YBzd-Ep0RmMIOQDvFT-69" value="" style="rounded=0;whiteSpace=wrap;html=1;strokeColor=none;fillColor=#FF6726;rotation=-270;" parent="1" vertex="1">
          <mxGeometry x="15" y="231.99999999999997" width="5" height="4.86" as="geometry" />
        </mxCell>
        <mxCell id="I2YBzd-Ep0RmMIOQDvFT-70" value="" style="rounded=0;whiteSpace=wrap;html=1;strokeColor=none;fillColor=#FFB72C;rotation=-270;" parent="1" vertex="1">
          <mxGeometry x="15" y="224.99999999999997" width="5" height="4.86" as="geometry" />
        </mxCell>
        <mxCell id="I2YBzd-Ep0RmMIOQDvFT-67" value="" style="rounded=0;whiteSpace=wrap;html=1;strokeColor=none;fillColor=#3D4554;rotation=-270;" parent="1" vertex="1">
          <mxGeometry x="13" y="212.99999999999997" width="8" height="4.86" as="geometry" />
        </mxCell>
        <mxCell id="I2YBzd-Ep0RmMIOQDvFT-57" value="" style="rounded=0;whiteSpace=wrap;html=1;strokeColor=none;fillColor=#FFB72C;rotation=-270;" parent="1" vertex="1">
          <mxGeometry x="15" y="199.99999999999997" width="5" height="4.86" as="geometry" />
        </mxCell>
        <mxCell id="I2YBzd-Ep0RmMIOQDvFT-47" value="" style="rounded=0;whiteSpace=wrap;html=1;strokeColor=none;fillColor=#FF6726;rotation=-270;" parent="1" vertex="1">
          <mxGeometry x="15" y="192.99999999999997" width="5" height="4.86" as="geometry" />
        </mxCell>
        <mxCell id="I2YBzd-Ep0RmMIOQDvFT-45" value="" style="rounded=0;whiteSpace=wrap;html=1;strokeColor=none;fillColor=#FFB72C;rotation=-270;" parent="1" vertex="1">
          <mxGeometry x="15" y="185.99999999999997" width="5" height="4.86" as="geometry" />
        </mxCell>
        <mxCell id="I2YBzd-Ep0RmMIOQDvFT-17" value="" style="rounded=0;whiteSpace=wrap;html=1;strokeColor=none;fillColor=#0B0B0D;container=0;rotation=-270;" parent="1" vertex="1">
          <mxGeometry x="-1" y="-245.00000000000003" width="20" height="30.18" as="geometry" />
        </mxCell>
        <mxCell id="I2YBzd-Ep0RmMIOQDvFT-13" value="" style="shape=trapezoid;perimeter=trapezoidPerimeter;whiteSpace=wrap;html=1;fixedSize=1;rotation=-450;strokeColor=none;size=9.289999999999964;fillColor=#575757;container=0;" parent="1" vertex="1">
          <mxGeometry x="-70" y="139.99999999999997" width="59.29" height="20" as="geometry" />
        </mxCell>
        <mxCell id="I2YBzd-Ep0RmMIOQDvFT-5" value="" style="shape=trapezoid;perimeter=trapezoidPerimeter;whiteSpace=wrap;html=1;fixedSize=1;rotation=-360;strokeColor=none;size=20.93000000000029;fillColor=#0B0B0D;container=0;" parent="1" vertex="1">
          <mxGeometry x="-32" y="-229.00000000000003" width="82.37" height="79.22" as="geometry" />
        </mxCell>
        <mxCell id="h76gvVELBRy7qwnbFygQ-2153" value="" style="endArrow=none;html=1;rounded=0;strokeWidth=8;strokeColor=#474747;" parent="1" edge="1">
          <mxGeometry width="50" height="50" relative="1" as="geometry">
            <mxPoint x="10" y="249.99999999999997" as="sourcePoint" />
            <mxPoint x="10" y="-230.00000000000003" as="targetPoint" />
            <Array as="points">
              <mxPoint x="30" y="249.99999999999997" />
              <mxPoint x="50" y="229.99999999999997" />
              <mxPoint x="50" y="179.99999999999997" />
              <mxPoint x="70" y="169.99999999999997" />
              <mxPoint x="70" y="129.99999999999997" />
              <mxPoint x="50" y="119.99999999999997" />
              <mxPoint x="50" y="69.99999999999997" />
              <mxPoint x="80" y="39.99999999999997" />
              <mxPoint x="80" y="-40.00000000000003" />
              <mxPoint x="50" y="-70.00000000000003" />
              <mxPoint x="50" y="-150.00000000000003" />
              <mxPoint x="30" y="-230.00000000000003" />
            </Array>
          </mxGeometry>
        </mxCell>
        <mxCell id="h76gvVELBRy7qwnbFygQ-2155" value="" style="rounded=0;whiteSpace=wrap;html=1;fillColor=none;strokeWidth=8;strokeColor=#474747;rotation=-270;" parent="1" vertex="1">
          <mxGeometry y="-245.00000000000003" width="20" height="30" as="geometry" />
        </mxCell>
        <mxCell id="h76gvVELBRy7qwnbFygQ-2196" value="" style="endArrow=none;html=1;rounded=0;strokeWidth=8;strokeColor=#474747;" parent="1" edge="1">
          <mxGeometry width="50" height="50" relative="1" as="geometry">
            <mxPoint x="10" y="249.99999999999997" as="sourcePoint" />
            <mxPoint x="10" y="-230.00000000000003" as="targetPoint" />
            <Array as="points">
              <mxPoint x="-10" y="249.99999999999997" />
              <mxPoint x="-30" y="229.99999999999997" />
              <mxPoint x="-30" y="179.99999999999997" />
              <mxPoint x="-50" y="169.99999999999997" />
              <mxPoint x="-50" y="129.99999999999997" />
              <mxPoint x="-30" y="119.99999999999997" />
              <mxPoint x="-30" y="69.99999999999997" />
              <mxPoint x="-60" y="39.99999999999997" />
              <mxPoint x="-60" y="-40.00000000000003" />
              <mxPoint x="-30" y="-70.00000000000003" />
              <mxPoint x="-30" y="-150.00000000000003" />
              <mxPoint x="-10" y="-230.00000000000003" />
            </Array>
          </mxGeometry>
        </mxCell>
        <mxCell id="I2YBzd-Ep0RmMIOQDvFT-1" value="" style="endArrow=none;html=1;rounded=0;strokeWidth=8;strokeColor=#474747;" parent="1" edge="1">
          <mxGeometry width="50" height="50" relative="1" as="geometry">
            <mxPoint x="-31" y="-70.00000000000003" as="sourcePoint" />
            <mxPoint x="50" y="-70.00000000000003" as="targetPoint" />
            <Array as="points" />
          </mxGeometry>
        </mxCell>
        <mxCell id="I2YBzd-Ep0RmMIOQDvFT-2" value="" style="endArrow=none;html=1;rounded=0;strokeWidth=8;strokeColor=#474747;" parent="1" edge="1">
          <mxGeometry width="50" height="50" relative="1" as="geometry">
            <mxPoint x="-31" y="69.99999999999997" as="sourcePoint" />
            <mxPoint x="50" y="69.99999999999997" as="targetPoint" />
            <Array as="points" />
          </mxGeometry>
        </mxCell>
        <mxCell id="I2YBzd-Ep0RmMIOQDvFT-3" value="" style="endArrow=none;html=1;rounded=0;strokeWidth=8;strokeColor=#474747;" parent="1" edge="1">
          <mxGeometry width="50" height="50" relative="1" as="geometry">
            <mxPoint x="-31" y="119.99999999999997" as="sourcePoint" />
            <mxPoint x="50" y="119.99999999999997" as="targetPoint" />
            <Array as="points" />
          </mxGeometry>
        </mxCell>
        <mxCell id="I2YBzd-Ep0RmMIOQDvFT-4" value="" style="endArrow=none;html=1;rounded=0;strokeWidth=8;strokeColor=#474747;" parent="1" edge="1">
          <mxGeometry width="50" height="50" relative="1" as="geometry">
            <mxPoint x="-31" y="179.99999999999997" as="sourcePoint" />
            <mxPoint x="50" y="179.99999999999997" as="targetPoint" />
            <Array as="points" />
          </mxGeometry>
        </mxCell>
        <mxCell id="I2YBzd-Ep0RmMIOQDvFT-18" value="" style="whiteSpace=wrap;html=1;shape=mxgraph.basic.octagon2;align=center;verticalAlign=middle;dx=7.32;fillColor=none;strokeWidth=8;strokeColor=#A3A3A3;container=0;rotation=-270;" parent="1" vertex="1">
          <mxGeometry x="-15" y="-25.00000000000003" width="50" height="50" as="geometry" />
        </mxCell>
        <mxCell id="I2YBzd-Ep0RmMIOQDvFT-19" value="" style="whiteSpace=wrap;html=1;shape=mxgraph.basic.octagon2;align=center;verticalAlign=middle;dx=2.81;fillColor=none;strokeWidth=12;strokeColor=#CFF9FC;container=0;rotation=-270;" parent="1" vertex="1">
          <mxGeometry y="-10.000000000000028" width="20" height="20" as="geometry" />
        </mxCell>
        <mxCell id="I2YBzd-Ep0RmMIOQDvFT-22" value="" style="endArrow=none;html=1;rounded=0;strokeWidth=8;strokeColor=#474747;" parent="1" edge="1">
          <mxGeometry width="50" height="50" relative="1" as="geometry">
            <mxPoint x="6" y="249.99999999999997" as="sourcePoint" />
            <mxPoint x="-25" y="234.99999999999997" as="targetPoint" />
            <Array as="points">
              <mxPoint x="-5" y="259" />
            </Array>
          </mxGeometry>
        </mxCell>
        <mxCell id="I2YBzd-Ep0RmMIOQDvFT-23" value="" style="endArrow=none;html=1;rounded=0;strokeWidth=8;strokeColor=#474747;" parent="1" edge="1">
          <mxGeometry width="50" height="50" relative="1" as="geometry">
            <mxPoint x="14" y="249.99999999999997" as="sourcePoint" />
            <mxPoint x="45" y="234.99999999999997" as="targetPoint" />
            <Array as="points">
              <mxPoint x="25" y="259" />
            </Array>
          </mxGeometry>
        </mxCell>
        <mxCell id="I2YBzd-Ep0RmMIOQDvFT-26" value="" style="endArrow=none;html=1;rounded=0;strokeWidth=8;strokeColor=#474747;" parent="1" edge="1">
          <mxGeometry width="50" height="50" relative="1" as="geometry">
            <mxPoint x="21" y="246.99999999999997" as="sourcePoint" />
            <mxPoint x="21" y="119.99999999999997" as="targetPoint" />
            <Array as="points" />
          </mxGeometry>
        </mxCell>
        <mxCell id="I2YBzd-Ep0RmMIOQDvFT-29" value="" style="endArrow=none;html=1;rounded=0;strokeWidth=8;strokeColor=#474747;" parent="1" edge="1">
          <mxGeometry width="50" height="50" relative="1" as="geometry">
            <mxPoint x="-1" y="246.99999999999997" as="sourcePoint" />
            <mxPoint x="-1" y="119.99999999999997" as="targetPoint" />
            <Array as="points" />
          </mxGeometry>
        </mxCell>
        <mxCell id="I2YBzd-Ep0RmMIOQDvFT-30" value="" style="ellipse;whiteSpace=wrap;html=1;strokeColor=#26465C;fillColor=none;strokeWidth=2;rotation=-270;" parent="1" vertex="1">
          <mxGeometry x="30" y="186.99999999999997" width="12" height="12" as="geometry" />
        </mxCell>
        <mxCell id="I2YBzd-Ep0RmMIOQDvFT-33" value="" style="ellipse;whiteSpace=wrap;html=1;strokeColor=#26465C;fillColor=none;strokeWidth=2;rotation=-270;" parent="1" vertex="1">
          <mxGeometry x="30" y="218.99999999999997" width="12" height="12" as="geometry" />
        </mxCell>
        <mxCell id="I2YBzd-Ep0RmMIOQDvFT-34" value="" style="ellipse;whiteSpace=wrap;html=1;strokeColor=#26465C;fillColor=none;strokeWidth=2;rotation=-270;" parent="1" vertex="1">
          <mxGeometry x="30" y="202.99999999999997" width="12" height="12" as="geometry" />
        </mxCell>
        <mxCell id="I2YBzd-Ep0RmMIOQDvFT-35" value="" style="ellipse;whiteSpace=wrap;html=1;strokeColor=#26465C;fillColor=none;strokeWidth=2;rotation=-270;" parent="1" vertex="1">
          <mxGeometry x="-21" y="186.99999999999997" width="12" height="12" as="geometry" />
        </mxCell>
        <mxCell id="I2YBzd-Ep0RmMIOQDvFT-36" value="" style="ellipse;whiteSpace=wrap;html=1;strokeColor=#26465C;fillColor=none;strokeWidth=2;rotation=-270;" parent="1" vertex="1">
          <mxGeometry x="-21" y="218.99999999999997" width="12" height="12" as="geometry" />
        </mxCell>
        <mxCell id="I2YBzd-Ep0RmMIOQDvFT-37" value="" style="ellipse;whiteSpace=wrap;html=1;strokeColor=#26465C;fillColor=none;strokeWidth=2;rotation=-270;" parent="1" vertex="1">
          <mxGeometry x="-21" y="202.99999999999997" width="12" height="12" as="geometry" />
        </mxCell>
        <mxCell id="I2YBzd-Ep0RmMIOQDvFT-39" value="" style="ellipse;whiteSpace=wrap;html=1;strokeColor=none;fillColor=#D1FFFC;rotation=-270;" parent="1" vertex="1">
          <mxGeometry x="33" y="222.99999999999997" width="5" height="5" as="geometry" />
        </mxCell>
        <mxCell id="I2YBzd-Ep0RmMIOQDvFT-40" value="" style="ellipse;whiteSpace=wrap;html=1;strokeColor=none;fillColor=#D1FFFC;rotation=-270;" parent="1" vertex="1">
          <mxGeometry x="33" y="206.99999999999997" width="5" height="5" as="geometry" />
        </mxCell>
        <mxCell id="I2YBzd-Ep0RmMIOQDvFT-41" value="" style="ellipse;whiteSpace=wrap;html=1;strokeColor=none;fillColor=#D1FFFC;rotation=-270;" parent="1" vertex="1">
          <mxGeometry x="33" y="190.99999999999997" width="5" height="5" as="geometry" />
        </mxCell>
        <mxCell id="I2YBzd-Ep0RmMIOQDvFT-42" value="" style="ellipse;whiteSpace=wrap;html=1;strokeColor=none;fillColor=#D1FFFC;rotation=-270;" parent="1" vertex="1">
          <mxGeometry x="-18" y="190.99999999999997" width="5" height="5" as="geometry" />
        </mxCell>
        <mxCell id="I2YBzd-Ep0RmMIOQDvFT-43" value="" style="ellipse;whiteSpace=wrap;html=1;strokeColor=none;fillColor=#D1FFFC;rotation=-270;" parent="1" vertex="1">
          <mxGeometry x="-18" y="206.99999999999997" width="5" height="5" as="geometry" />
        </mxCell>
        <mxCell id="I2YBzd-Ep0RmMIOQDvFT-44" value="" style="ellipse;whiteSpace=wrap;html=1;strokeColor=none;fillColor=#D1FFFC;rotation=-270;" parent="1" vertex="1">
          <mxGeometry x="-18" y="222.99999999999997" width="5" height="5" as="geometry" />
        </mxCell>
        <mxCell id="I2YBzd-Ep0RmMIOQDvFT-78" value="" style="rounded=0;whiteSpace=wrap;html=1;strokeColor=none;fillColor=#362135;rotation=-270;" parent="1" vertex="1">
          <mxGeometry x="-26" y="216.99999999999997" width="70" height="4.86" as="geometry" />
        </mxCell>
        <mxCell id="I2YBzd-Ep0RmMIOQDvFT-82" value="" style="rounded=0;whiteSpace=wrap;html=1;strokeWidth=4;strokeColor=#3AADBA;fillColor=none;container=0;rotation=-270;" parent="1" vertex="1">
          <mxGeometry x="60" y="8.999999999999972" width="10" height="10" as="geometry" />
        </mxCell>
        <mxCell id="I2YBzd-Ep0RmMIOQDvFT-83" value="" style="rounded=0;whiteSpace=wrap;html=1;strokeWidth=4;strokeColor=#3AADBA;fillColor=none;container=0;rotation=-270;" parent="1" vertex="1">
          <mxGeometry x="60" y="26.99999999999997" width="10" height="10" as="geometry" />
        </mxCell>
        <mxCell id="I2YBzd-Ep0RmMIOQDvFT-108" value="" style="rounded=0;whiteSpace=wrap;html=1;strokeColor=#00E300;strokeWidth=4;fillColor=none;container=0;rotation=-270;" parent="1" vertex="1">
          <mxGeometry x="25" y="59.99999999999997" width="10" height="20" as="geometry" />
        </mxCell>
        <mxCell id="I2YBzd-Ep0RmMIOQDvFT-109" value="" style="rounded=0;whiteSpace=wrap;html=1;strokeColor=#00E300;strokeWidth=4;fillColor=none;container=0;rotation=-270;" parent="1" vertex="1">
          <mxGeometry x="-13" y="-80.00000000000003" width="10" height="20" as="geometry" />
        </mxCell>
        <mxCell id="I2YBzd-Ep0RmMIOQDvFT-110" value="" style="rounded=0;whiteSpace=wrap;html=1;strokeColor=none;fillColor=#1F1501;rotation=-270;" parent="1" vertex="1">
          <mxGeometry x="62" y="-36.00000000000003" width="10" height="10" as="geometry" />
        </mxCell>
        <mxCell id="I2YBzd-Ep0RmMIOQDvFT-113" value="" style="rounded=0;whiteSpace=wrap;html=1;strokeColor=none;fillColor=#423517;rotation=-270;" parent="1" vertex="1">
          <mxGeometry x="62" y="-22.00000000000003" width="10" height="10" as="geometry" />
        </mxCell>
        <mxCell id="I2YBzd-Ep0RmMIOQDvFT-119" value="" style="rounded=0;whiteSpace=wrap;html=1;strokeColor=none;fillColor=#1F1501;rotation=-270;" parent="1" vertex="1">
          <mxGeometry x="-52" y="-35.00000000000003" width="10" height="10" as="geometry" />
        </mxCell>
        <mxCell id="I2YBzd-Ep0RmMIOQDvFT-120" value="" style="rounded=0;whiteSpace=wrap;html=1;strokeColor=none;fillColor=#423517;rotation=-270;" parent="1" vertex="1">
          <mxGeometry x="-52" y="-21.00000000000003" width="10" height="10" as="geometry" />
        </mxCell>
        <mxCell id="I2YBzd-Ep0RmMIOQDvFT-121" value="" style="rounded=0;whiteSpace=wrap;html=1;strokeColor=none;fillColor=#1F1501;rotation=-270;" parent="1" vertex="1">
          <mxGeometry x="-52" y="-7.000000000000028" width="10" height="10" as="geometry" />
        </mxCell>
        <mxCell id="I2YBzd-Ep0RmMIOQDvFT-122" value="" style="rounded=0;whiteSpace=wrap;html=1;strokeColor=none;fillColor=#1F1501;rotation=-270;" parent="1" vertex="1">
          <mxGeometry x="-52" y="6.999999999999972" width="10" height="10" as="geometry" />
        </mxCell>
        <mxCell id="I2YBzd-Ep0RmMIOQDvFT-123" value="" style="rounded=0;whiteSpace=wrap;html=1;strokeColor=none;fillColor=#1F1501;rotation=-270;" parent="1" vertex="1">
          <mxGeometry x="-39" y="-7.000000000000028" width="10" height="10" as="geometry" />
        </mxCell>
        <mxCell id="I2YBzd-Ep0RmMIOQDvFT-124" value="" style="rounded=0;whiteSpace=wrap;html=1;strokeColor=none;fillColor=#1F1501;rotation=-314;" parent="1" vertex="1">
          <mxGeometry x="-43" y="-49.00000000000003" width="10" height="10" as="geometry" />
        </mxCell>
        <mxCell id="I2YBzd-Ep0RmMIOQDvFT-125" value="" style="rounded=0;whiteSpace=wrap;html=1;strokeColor=none;fillColor=#1F1501;rotation=-314;" parent="1" vertex="1">
          <mxGeometry x="-21" y="-32.00000000000003" width="10" height="10" as="geometry" />
        </mxCell>
        <mxCell id="I2YBzd-Ep0RmMIOQDvFT-127" value="" style="rounded=0;whiteSpace=wrap;html=1;strokeColor=none;fillColor=#423517;rotation=-314;" parent="1" vertex="1">
          <mxGeometry x="-23" y="18.99999999999997" width="10" height="10" as="geometry" />
        </mxCell>
        <mxCell id="I2YBzd-Ep0RmMIOQDvFT-129" value="" style="rounded=0;whiteSpace=wrap;html=1;strokeColor=none;fillColor=#1F1501;rotation=-314;" parent="1" vertex="1">
          <mxGeometry x="-36" y="48.99999999999997" width="10" height="10" as="geometry" />
        </mxCell>
        <mxCell id="Ekk-Qu9Clgl-ypge0_Tx-38" value="" style="ellipse;whiteSpace=wrap;html=1;fillColor=none;strokeWidth=4;strokeColor=#1A4482;rotation=-270;" parent="1" vertex="1">
          <mxGeometry x="31" y="-123.00000000000003" width="10" height="10" as="geometry" />
        </mxCell>
        <mxCell id="Ekk-Qu9Clgl-ypge0_Tx-39" value="" style="ellipse;whiteSpace=wrap;html=1;fillColor=none;strokeWidth=4;strokeColor=#1A4482;rotation=-270;" parent="1" vertex="1">
          <mxGeometry x="31" y="-106.00000000000003" width="10" height="10" as="geometry" />
        </mxCell>
        <mxCell id="Ekk-Qu9Clgl-ypge0_Tx-40" value="" style="ellipse;whiteSpace=wrap;html=1;fillColor=none;strokeWidth=4;strokeColor=#1A4482;rotation=-270;" parent="1" vertex="1">
          <mxGeometry x="31" y="-90.00000000000003" width="10" height="10" as="geometry" />
        </mxCell>
        <mxCell id="I2YBzd-Ep0RmMIOQDvFT-134" value="" style="endArrow=none;html=1;rounded=0;strokeWidth=4;strokeColor=#919191;exitX=1;exitY=0.5;exitDx=0;exitDy=0;entryX=0.5;entryY=1;entryDx=0;entryDy=0;" parent="1" edge="1">
          <mxGeometry width="50" height="50" relative="1" as="geometry">
            <mxPoint x="-14" y="-124.00000000000003" as="sourcePoint" />
            <mxPoint x="-14" y="-111.00000000000003" as="targetPoint" />
          </mxGeometry>
        </mxCell>
        <mxCell id="I2YBzd-Ep0RmMIOQDvFT-99" value="" style="ellipse;whiteSpace=wrap;html=1;fillColor=none;strokeWidth=4;strokeColor=#787750;container=0;rotation=-180;" parent="1" vertex="1">
          <mxGeometry x="-8" y="-129.00000000000003" width="10" height="10" as="geometry" />
        </mxCell>
        <mxCell id="I2YBzd-Ep0RmMIOQDvFT-103" value="" style="ellipse;whiteSpace=wrap;html=1;fillColor=none;strokeWidth=4;strokeColor=#787750;container=0;rotation=-180;" parent="1" vertex="1">
          <mxGeometry x="-14" y="-144.00000000000003" width="10" height="10" as="geometry" />
        </mxCell>
        <mxCell id="I2YBzd-Ep0RmMIOQDvFT-133" value="" style="ellipse;whiteSpace=wrap;html=1;fillColor=none;strokeWidth=4;strokeColor=#787750;container=0;rotation=-180;" parent="1" vertex="1">
          <mxGeometry x="-18" y="-111.00000000000003" width="10" height="10" as="geometry" />
        </mxCell>
        <mxCell id="Ekk-Qu9Clgl-ypge0_Tx-58" value="" style="group;rotation=-450;" parent="1" vertex="1" connectable="0">
          <mxGeometry x="91" y="203.99999999999997" width="18" height="13" as="geometry" />
        </mxCell>
        <mxCell id="Ekk-Qu9Clgl-ypge0_Tx-59" value="" style="rounded=0;whiteSpace=wrap;html=1;strokeColor=none;fillColor=#808080;rotation=-450;" parent="Ekk-Qu9Clgl-ypge0_Tx-58" vertex="1">
          <mxGeometry x="11" y="4" width="5" height="5" as="geometry" />
        </mxCell>
        <mxCell id="Ekk-Qu9Clgl-ypge0_Tx-60" value="" style="rounded=0;whiteSpace=wrap;html=1;strokeColor=none;fillColor=#808080;rotation=-450;" parent="Ekk-Qu9Clgl-ypge0_Tx-58" vertex="1">
          <mxGeometry x="6" y="-3" width="4" height="5" as="geometry" />
        </mxCell>
        <mxCell id="Ekk-Qu9Clgl-ypge0_Tx-61" value="" style="rounded=0;whiteSpace=wrap;html=1;strokeColor=none;fillColor=#808080;rotation=-450;" parent="Ekk-Qu9Clgl-ypge0_Tx-58" vertex="1">
          <mxGeometry x="6" y="11" width="4" height="5" as="geometry" />
        </mxCell>
        <mxCell id="Ekk-Qu9Clgl-ypge0_Tx-62" value="" style="shape=trapezoid;perimeter=trapezoidPerimeter;whiteSpace=wrap;html=1;fixedSize=1;rotation=-630;strokeColor=none;size=3;fillColor=#474747;container=0;" parent="Ekk-Qu9Clgl-ypge0_Tx-58" vertex="1">
          <mxGeometry y="1" width="16.37" height="10.5" as="geometry" />
        </mxCell>
        <mxCell id="Ekk-Qu9Clgl-ypge0_Tx-63" value="" style="rounded=0;whiteSpace=wrap;html=1;strokeColor=none;fillColor=#808080;rotation=-270;" parent="1" vertex="1">
          <mxGeometry x="-86" y="205.99999999999997" width="5" height="5" as="geometry" />
        </mxCell>
        <mxCell id="Ekk-Qu9Clgl-ypge0_Tx-64" value="" style="rounded=0;whiteSpace=wrap;html=1;strokeColor=none;fillColor=#808080;rotation=-270;" parent="1" vertex="1">
          <mxGeometry x="-80" y="213.99999999999997" width="4" height="5" as="geometry" />
        </mxCell>
        <mxCell id="Ekk-Qu9Clgl-ypge0_Tx-65" value="" style="rounded=0;whiteSpace=wrap;html=1;strokeColor=none;fillColor=#808080;rotation=-270;" parent="1" vertex="1">
          <mxGeometry x="-80" y="199.99999999999997" width="4" height="5" as="geometry" />
        </mxCell>
        <mxCell id="Ekk-Qu9Clgl-ypge0_Tx-66" value="" style="shape=trapezoid;perimeter=trapezoidPerimeter;whiteSpace=wrap;html=1;fixedSize=1;rotation=-450;strokeColor=none;size=3;fillColor=#474747;container=0;" parent="1" vertex="1">
          <mxGeometry x="-87" y="203.99999999999997" width="16.37" height="10.5" as="geometry" />
        </mxCell>
        <mxCell id="Ekk-Qu9Clgl-ypge0_Tx-68" value="" style="endArrow=none;html=1;rounded=0;strokeWidth=8;strokeColor=#474747;" parent="1" edge="1">
          <mxGeometry width="50" height="50" relative="1" as="geometry">
            <mxPoint x="-21" y="-190.00000000000003" as="sourcePoint" />
            <mxPoint x="40" y="-190.00000000000003" as="targetPoint" />
            <Array as="points" />
          </mxGeometry>
        </mxCell>
        <mxCell id="Ekk-Qu9Clgl-ypge0_Tx-69" value="" style="rounded=0;whiteSpace=wrap;html=1;strokeColor=#00E300;strokeWidth=4;fillColor=none;container=0;rotation=-270;" parent="1" vertex="1">
          <mxGeometry x="5" y="-200.00000000000003" width="10" height="20" as="geometry" />
        </mxCell>
        <mxCell id="Ekk-Qu9Clgl-ypge0_Tx-72" value="" style="rounded=0;whiteSpace=wrap;html=1;strokeColor=none;fillColor=#1F1501;rotation=-270;" parent="1" vertex="1">
          <mxGeometry x="-25" y="74.99999999999997" width="10" height="10" as="geometry" />
        </mxCell>
        <mxCell id="Ekk-Qu9Clgl-ypge0_Tx-73" value="" style="rounded=0;whiteSpace=wrap;html=1;strokeColor=none;fillColor=#423517;rotation=-270;" parent="1" vertex="1">
          <mxGeometry x="-13" y="74.99999999999997" width="10" height="10" as="geometry" />
        </mxCell>
        <mxCell id="Ekk-Qu9Clgl-ypge0_Tx-74" value="" style="rounded=0;whiteSpace=wrap;html=1;strokeColor=none;fillColor=#1F1501;rotation=-270;" parent="1" vertex="1">
          <mxGeometry x="-25" y="86.99999999999997" width="10" height="10" as="geometry" />
        </mxCell>
        <mxCell id="Ekk-Qu9Clgl-ypge0_Tx-75" value="" style="endArrow=none;html=1;rounded=0;strokeWidth=8;strokeColor=#474747;" parent="1" edge="1">
          <mxGeometry width="50" height="50" relative="1" as="geometry">
            <mxPoint x="50" y="227.99999999999997" as="sourcePoint" />
            <mxPoint x="50" y="189.99999999999997" as="targetPoint" />
            <Array as="points">
              <mxPoint x="90" y="219.99999999999997" />
              <mxPoint x="90" y="199.99999999999997" />
            </Array>
          </mxGeometry>
        </mxCell>
        <mxCell id="Ekk-Qu9Clgl-ypge0_Tx-80" value="" style="endArrow=none;html=1;rounded=0;strokeWidth=8;strokeColor=#474747;" parent="1" edge="1">
          <mxGeometry width="50" height="50" relative="1" as="geometry">
            <mxPoint x="-31" y="227.99999999999997" as="sourcePoint" />
            <mxPoint x="-30" y="189.99999999999997" as="targetPoint" />
            <Array as="points">
              <mxPoint x="-70" y="219.99999999999997" />
              <mxPoint x="-70" y="197.99999999999997" />
            </Array>
          </mxGeometry>
        </mxCell>
      </root>
    </mxGraphModel>
  </diagram>
</mxfile>
